<svg width="48" height="48" viewBox="0 0 48 48" fill="none" xmlns="http://www.w3.org/2000/svg">
<g clip-path="url(#clip0_5479_32712)">
<path d="M45 30C45.003 28.498 44.6301 27.0191 43.9152 25.6981C43.2003 24.3771 42.1661 23.2561 40.907 22.4372C39.6478 21.6182 38.2037 21.1275 36.7063 21.0096C35.2089 20.8917 33.7059 21.1504 32.3341 21.7623C30.9623 22.3741 29.7655 23.3195 28.8527 24.5123C27.9398 25.7051 27.3401 27.1075 27.108 28.5915C26.876 30.0755 27.0191 31.5939 27.5242 33.0085C28.0293 34.423 28.8804 35.6886 30 36.69V48L36 45.159L42 48V36.69C42.943 35.8491 43.6977 34.8184 44.2147 33.6655C44.7317 32.5126 44.9993 31.2635 45 30ZM39 43.26L36 41.8395L33 43.26V38.475C34.9387 39.1752 37.0613 39.1752 39 38.475V43.26ZM36 36C34.8133 36 33.6533 35.6481 32.6666 34.9888C31.6799 34.3295 30.9108 33.3925 30.4567 32.2961C30.0026 31.1997 29.8838 29.9933 30.1153 28.8295C30.3468 27.6656 30.9182 26.5965 31.7573 25.7574C32.5965 24.9182 33.6656 24.3468 34.8294 24.1153C35.9933 23.8838 37.1997 24.0026 38.2961 24.4567C39.3924 24.9108 40.3295 25.6799 40.9888 26.6666C41.6481 27.6533 42 28.8133 42 30C41.998 31.5907 41.3652 33.1157 40.2404 34.2404C39.1156 35.3652 37.5907 35.998 36 36V36Z" fill="#FF0000"/>
<path d="M37.5 7.5H33V6C32.9976 5.20508 32.6808 4.4434 32.1187 3.8813C31.5566 3.31921 30.7949 3.00237 30 3H18C17.2051 3.00237 16.4434 3.31921 15.8813 3.8813C15.3192 4.4434 15.0024 5.20508 15 6V7.5H10.5C9.70508 7.50237 8.9434 7.81921 8.3813 8.3813C7.81921 8.9434 7.50237 9.70508 7.5 10.5V42C7.50237 42.7949 7.81921 43.5566 8.3813 44.1187C8.9434 44.6808 9.70508 44.9976 10.5 45H24V42H10.5V10.5H15V15H33V10.5H37.5V18H40.5V10.5C40.4976 9.70508 40.1808 8.9434 39.6187 8.3813C39.0566 7.81921 38.2949 7.50237 37.5 7.5ZM30 12H18V6H30V12Z" fill="#FF0000"/>
</g>
<defs>
<clipPath id="clip0_5479_32712">
<rect width="48" height="48" fill="white"/>
</clipPath>
</defs>
</svg>
