<svg width="55" height="55" viewBox="0 0 55 55" fill="none" xmlns="http://www.w3.org/2000/svg">
<path d="M55 27.5C55 20.2065 52.1027 13.2118 46.9454 8.05456C41.7882 2.89731 34.7935 0 27.5 0C20.2065 0 13.2118 2.89731 8.05456 8.05456C2.89731 13.2118 0 20.2065 0 27.5C0 34.7935 2.89731 41.7882 8.05456 46.9454C13.2118 52.1027 20.2065 55 27.5 55C34.7935 55 41.7882 52.1027 46.9454 46.9454C52.1027 41.7882 55 34.7935 55 27.5ZM29.2188 39.5312C29.2188 39.9871 29.0377 40.4243 28.7153 40.7466C28.393 41.0689 27.9558 41.25 27.5 41.25C27.0442 41.25 26.607 41.0689 26.2847 40.7466C25.9623 40.4243 25.7812 39.9871 25.7812 39.5312V19.6178L18.4044 26.9981C18.0816 27.3209 17.6439 27.5022 17.1875 27.5022C16.7311 27.5022 16.2934 27.3209 15.9706 26.9981C15.6479 26.6754 15.4666 26.2377 15.4666 25.7812C15.4666 25.3248 15.6479 24.8871 15.9706 24.5644L26.2831 14.2519C26.4428 14.0918 26.6324 13.9648 26.8413 13.8782C27.0501 13.7915 27.2739 13.7469 27.5 13.7469C27.7261 13.7469 27.9499 13.7915 28.1587 13.8782C28.3676 13.9648 28.5572 14.0918 28.7169 14.2519L39.0294 24.5644C39.3521 24.8871 39.5334 25.3248 39.5334 25.7812C39.5334 26.2377 39.3521 26.6754 39.0294 26.9981C38.7066 27.3209 38.2689 27.5022 37.8125 27.5022C37.3561 27.5022 36.9184 27.3209 36.5956 26.9981L29.2188 19.6178V39.5312Z" fill="#00BFA6"/>
</svg>
