<?xml version="1.0" standalone="no"?>
<!DOCTYPE svg PUBLIC "-//W3C//DTD SVG 20010904//EN"
 "http://www.w3.org/TR/2001/REC-SVG-20010904/DTD/svg10.dtd">
<svg version="1.0" xmlns="http://www.w3.org/2000/svg"
 width="512.000000pt" height="512.000000pt" viewBox="0 0 512.000000 512.000000"
 preserveAspectRatio="xMidYMid meet">

<g transform="translate(0.000000,512.000000) scale(0.100000,-0.100000)"
fill="#000000" stroke="none">
<path d="M2331 5109 c-470 -42 -929 -220 -1320 -512 -124 -92 -396 -364 -488
-488 -594 -796 -688 -1836 -244 -2707 133 -259 258 -429 476 -647 218 -218
388 -343 647 -476 725 -369 1591 -369 2316 0 259 133 429 258 647 476 218 218
343 388 476 647 452 887 344 1961 -279 2753 -71 90 -317 336 -407 407 -518
408 -1175 605 -1824 547z m486 -555 c283 -38 553 -133 792 -278 328 -200 611
-516 771 -861 253 -545 253 -1162 1 -1709 -163 -353 -460 -679 -796 -877 -314
-184 -662 -279 -1025 -279 -1113 0 -2010 897 -2010 2010 0 442 144 868 413
1224 78 104 269 295 373 373 424 321 967 466 1481 397z"/>
<path d="M1514 3716 c-17 -8 -40 -26 -52 -41 l-22 -28 0 -1079 c0 -1177 -3
-1113 57 -1154 26 -18 51 -19 388 -19 337 0 362 1 388 19 56 38 57 45 57 411
l0 335 225 0 224 0 3 -339 c4 -468 -34 -431 443 -431 194 0 345 4 367 10 20 6
48 24 62 41 l26 31 0 1085 c0 1065 0 1085 -20 1113 -41 58 -55 60 -430 60
-391 0 -398 -1 -431 -74 -17 -37 -19 -71 -19 -349 l0 -307 -222 2 -223 3 -3
319 c-2 303 -3 320 -23 347 -41 58 -46 59 -421 59 -264 -1 -350 -4 -374 -14z
m666 -460 c0 -200 4 -335 10 -353 6 -17 22 -35 36 -42 17 -7 125 -11 338 -11
301 0 314 1 340 21 l26 20 2 342 3 342 298 3 297 2 0 -1020 0 -1020 -297 2
-298 3 -3 359 c-2 353 -3 360 -24 383 l-21 23 -323 0 c-177 0 -330 -3 -339 -6
-42 -16 -45 -46 -45 -414 l0 -350 -295 0 -295 0 0 1020 0 1020 295 0 295 0 0
-324z"/>
</g>
</svg>
